<svg id="Layer_1" data-name="Layer 1" xmlns="http://www.w3.org/2000/svg" viewBox="0 0 1270 1042.67"><defs><style>.cls-1{fill:#fff;}.cls-2{fill:#515151;}.cls-3{fill:#4bd28f;}.cls-4{fill:#fa0;}.cls-5{fill:#ff4d4d;}.cls-11,.cls-12,.cls-13,.cls-14,.cls-6{fill:none;}.cls-6{stroke:#332f2f;stroke-width:5px;}.cls-11,.cls-13,.cls-14,.cls-6{stroke-miterlimit:10;}.cls-7{font-size:54.01px;fill:#939393;font-family:SourceSansPro-Semibold, Source Sans Pro;font-weight:600;letter-spacing:-0.03em;}.cls-8{letter-spacing:-0.04em;}.cls-9{fill:#000;}.cls-10{fill:#565656;}.cls-11,.cls-13,.cls-14{stroke:#4bd28f;}.cls-11{stroke-width:21px;}.cls-13{stroke-width:39px;}.cls-14{stroke-width:16px;}</style></defs><rect class="cls-1" x="15" y="337.77" width="470" height="470"/><path class="cls-2" d="M470,30V470H30V30H470M500,0H0V500H500V0Z" transform="translate(0 322.77)"/><rect class="cls-3" x="93" y="434.95" width="65.22" height="65.22"/><path class="cls-3" d="M148.22,122.18V167.4H103V122.18h45.22m20-20H83V187.4h85.22V102.18Z" transform="translate(0 322.77)"/><rect class="cls-4" x="93" y="545.74" width="65.22" height="65.22"/><path class="cls-4" d="M148.22,233v45.22H103V233h45.22m20-20H83v85.22h85.22V213Z" transform="translate(0 322.77)"/><rect class="cls-5" x="93" y="656.53" width="65.22" height="65.22"/><path class="cls-5" d="M148.22,343.76V389H103V343.76h45.22m20-20H83V409h85.22V323.76Z" transform="translate(0 322.77)"/><line class="cls-6" x1="206.57" y1="459.04" x2="425.92" y2="459.04"/><line class="cls-6" x1="206.57" y1="563.44" x2="425.92" y2="563.44"/><line class="cls-6" x1="206.57" y1="674.23" x2="425.92" y2="674.23"/><line class="cls-6" x1="206.65" y1="483.81" x2="426" y2="483.81"/><line class="cls-6" x1="206.65" y1="588.2" x2="426" y2="588.2"/><line class="cls-6" x1="206.65" y1="698.99" x2="426" y2="698.99"/><text class="cls-7" transform="translate(294.07 995.26)">P<tspan class="cls-8" x="29.65" y="0">r</tspan><tspan x="47.58" y="0">odu</tspan><tspan class="cls-8" x="132.38" y="0">c</tspan><tspan x="154.95" y="0">t</tspan><tspan class="cls-9" x="172.72" y="0"> </tspan><tspan class="cls-3" x="181.69" y="0">Pulse</tspan></text><rect class="cls-10" x="770" y="322.67" width="500" height="500.1" rx="77.56"/><circle class="cls-3" cx="606.54" cy="46.47" r="32.54"/><circle class="cls-5" cx="606.54" cy="222.23" r="32.54"/><circle class="cls-4" cx="606.54" cy="134.35" r="32.54"/><polyline class="cls-11" points="988.08 95 1060.31 167.23 1139 4.57"/><path class="cls-12" d="M910.54,187.4" transform="translate(0 322.77)"/><path class="cls-11" d="M-95.5,1057.5" transform="translate(0 322.77)"/><path class="cls-11" d="M-56.5,1062.5" transform="translate(0 322.77)"/><path class="cls-11" d="M67.81,1026.33" transform="translate(0 322.77)"/><path class="cls-13" d="M770,255.5H931.84c26.56,0,50.76,167.58,82.43,0s49.3,0,73.27,0H1270" transform="translate(0 322.77)"/><path class="cls-10" d="M276,719.9H149.64a12,12,0,0,1-12-12V581.67a12,12,0,0,1,12-12H276a12,12,0,0,1,12,12V707.9A12,12,0,0,1,276,719.9Z" transform="translate(0 322.77)"/><path class="cls-14" d="M137.92,645.09h48.57c8,0,15.24,58.55,24.75,0s14.8,0,22,0H288" transform="translate(0 322.77)"/></svg>