<svg id="Layer_1" data-name="Layer 1" xmlns="http://www.w3.org/2000/svg" viewBox="0 0 475 150"><defs><style>.cls-1{font-size:54.01px;fill:#939393;font-family:SourceSansPro-Semibold, Source Sans Pro;font-weight:600;letter-spacing:-0.03em;}.cls-2{letter-spacing:-0.04em;}.cls-3{fill:#000;}.cls-4{fill:#4bd28f;}.cls-5{fill:#565656;}.cls-6{fill:none;stroke:#4bd28f;stroke-miterlimit:10;stroke-width:16px;}</style></defs><text class="cls-1" transform="translate(156.57 102.49)">P<tspan class="cls-2" x="29.65" y="0">r</tspan><tspan x="47.58" y="0">odu</tspan><tspan class="cls-2" x="132.38" y="0">c</tspan><tspan x="154.95" y="0">t</tspan><tspan class="cls-3" x="172.72" y="0"> </tspan><tspan class="cls-4" x="181.69" y="0">Pulse</tspan></text><path class="cls-5" d="M138.5,149.9H12.14a12,12,0,0,1-12-12V11.67a12,12,0,0,1,12-12H138.5a12,12,0,0,1,12,12V137.9A12,12,0,0,1,138.5,149.9Z"/><path class="cls-6" d="M.42,75.09H49c8,0,15.24,58.55,24.75,0s14.8,0,22,0H150.5"/></svg>