<svg id="Layer_1" data-name="Layer 1" xmlns="http://www.w3.org/2000/svg" viewBox="0 0 475 150"><path d="M161.06,67.16h11.18c7.83,0,13.72,2.76,13.72,11,0,7.88-5.89,11.45-13.5,11.45h-5v12.91h-6.43ZM172,84.45c5.18,0,7.62-2.06,7.62-6.32s-2.71-5.84-7.84-5.84h-4.26V84.45Z" style="fill:#939393"/><path d="M190.12,75.91h5.23l.49,4.76H196c1.95-3.46,4.76-5.41,7.57-5.41a7.63,7.63,0,0,1,3,.54l-1.3,5.46a8.63,8.63,0,0,0-2.54-.32c-2.1,0-4.64,1.4-6.21,5.45v16.1h-6.42Z" style="fill:#939393"/><path d="M206.32,89.25c0-8.85,6.05-14,12.69-14s12.64,5.14,12.64,14S225.6,103.14,219,103.14,206.32,98.06,206.32,89.25Zm18.8,0c0-5.29-2.27-8.75-6.11-8.75s-6.1,3.46-6.1,8.75S215.18,98,219,98,225.12,94.49,225.12,89.25Z" style="fill:#939393"/><path d="M234.29,89.25c0-8.69,5.41-14,11.24-14,3,0,4.86,1.14,6.91,2.92l-.27-4.27V64.35h6.38v38.14h-5.19l-.48-2.87h-.22a11,11,0,0,1-7.45,3.52C238.56,103.14,234.29,98,234.29,89.25Zm17.88,5.68V82.72a7.49,7.49,0,0,0-5.29-2.16c-3.29,0-6,3.13-6,8.59,0,5.72,2.16,8.69,5.94,8.69C248.77,97.84,250.5,97,252.17,94.93Z" style="fill:#939393"/><path d="M264.27,92.55V75.91h6.38V91.74c0,4.32,1.24,5.94,4.05,5.94,2.32,0,3.83-1.08,5.78-3.62V75.91h6.37v26.58h-5.24l-.49-3.89H281c-2.32,2.75-4.86,4.54-8.53,4.54C266.76,103.14,264.27,99.25,264.27,92.55Z" style="fill:#939393"/><path d="M291.11,89.25c0-8.85,6.27-14,13.4-14a11.29,11.29,0,0,1,7.78,3l-3.08,4a6.25,6.25,0,0,0-4.38-1.73c-4.21,0-7.13,3.46-7.13,8.75s2.87,8.7,6.92,8.7a8.51,8.51,0,0,0,5.45-2.11l2.6,4.06a13.25,13.25,0,0,1-8.7,3.24C296.73,103.14,291.11,98.06,291.11,89.25Z" style="fill:#939393"/><path d="M316.39,93.47V81h-3.78V76.24l4.1-.33.76-8.26h5.29v8.26h6.76V81h-6.76V93.47c0,3.08,1.25,4.59,3.73,4.59a7.14,7.14,0,0,0,2.76-.54l1.13,4.48a13.41,13.41,0,0,1-5.51,1.14C318.66,103.14,316.39,99.25,316.39,93.47Z" style="fill:#939393"/><path d="M342.75,67.16h11.18c7.83,0,13.72,2.76,13.72,11,0,7.88-5.89,11.45-13.51,11.45h-5v12.91h-6.42Zm10.91,17.29c5.18,0,7.61-2.06,7.61-6.32s-2.7-5.84-7.83-5.84h-4.27V84.45Z" style="fill:#4bd28f"/><path d="M371.53,92.55V75.91h6.38V91.74c0,4.32,1.24,5.94,4,5.94,2.32,0,3.83-1.08,5.78-3.62V75.91h6.37v26.58h-5.24l-.48-3.89h-.17c-2.32,2.75-4.86,4.54-8.53,4.54C374,103.14,371.53,99.25,371.53,92.55Z" style="fill:#4bd28f"/><path d="M400.1,95.52V64.35h6.43V95.84c0,1.57.71,2.11,1.35,2.11a3.33,3.33,0,0,0,1-.11l.75,4.7a7.5,7.5,0,0,1-3.35.6C401.78,103.14,400.1,100.22,400.1,95.52Z" style="fill:#4bd28f"/><path d="M410.37,99.25l2.81-3.62a11.33,11.33,0,0,0,7.45,2.7c2.81,0,4.16-1.3,4.16-3.08,0-2.21-2.59-3.08-5.56-4.16-3.84-1.4-7.4-3.62-7.4-7.83,0-4.65,3.78-8,9.72-8a13.42,13.42,0,0,1,8.86,3.24l-2.76,3.62a9.69,9.69,0,0,0-5.94-2.05c-2.65,0-3.83,1.3-3.83,2.86,0,1.95,1.89,2.7,5.23,3.84,4.11,1.4,7.73,3.51,7.73,8.1s-3.67,8.27-10.43,8.27A14.8,14.8,0,0,1,410.37,99.25Z" style="fill:#4bd28f"/><path d="M432.73,89.2c0-8.64,6-13.94,12.26-13.94,7.18,0,11.07,5.19,11.07,12.64a14.61,14.61,0,0,1-.32,3.24H439c.65,4.43,3.46,7,7.67,7a11.14,11.14,0,0,0,6.16-1.84l2.16,4a15.45,15.45,0,0,1-9.18,2.81C438.45,103.14,432.73,98.06,432.73,89.2Zm17.71-2.81c0-3.89-1.83-6.16-5.29-6.16-3,0-5.62,2.16-6.16,6.16Z" style="fill:#4bd28f"/><path d="M138.5,149.9H12.14a12,12,0,0,1-12-12V11.67a12,12,0,0,1,12-12H138.5a12,12,0,0,1,12,12V137.9A12,12,0,0,1,138.5,149.9Z" style="fill:#565656"/><path d="M.42,75.09H49c8,0,15.24,58.55,24.75,0s14.8,0,22,0H150.5" style="fill:none;stroke:#4bd28f;stroke-miterlimit:10;stroke-width:16px"/></svg>